<svg width="181" height="131" viewBox="0 0 181 131" fill="none" xmlns="http://www.w3.org/2000/svg">
<path d="M51.7159 90.7669C52.66 90.0173 53.8632 89.6735 55.0609 89.811C56.2586 89.9486 57.3525 90.5563 58.1021 91.5004C59.6566 93.4584 59.3265 96.3322 57.3686 97.8867C47.5433 105.687 33.2381 104.044 25.4373 94.2191C17.6365 84.3938 19.2796 70.0886 29.1049 62.2878C26.0228 51.0957 29.5471 38.7212 39.1588 31.09C51.3692 21.3956 68.8906 22.9228 79.341 34.1848L81.0362 32.6648C84.8128 29.6664 89.6257 28.291 94.4164 28.8413C99.207 29.3915 103.583 31.8223 106.581 35.5989C112.799 43.4306 111.514 54.8976 103.647 61.1439L100.087 63.9703C98.1293 65.5248 95.2555 65.1947 93.701 63.2368C92.1182 61.2432 92.4766 58.405 94.4345 56.8505L97.9944 54.0241C99.8827 52.5249 101.098 50.337 101.373 47.9417C101.648 45.5464 100.961 43.1399 99.4614 41.2516C97.9622 39.3633 95.7743 38.1479 93.379 37.8728C90.9837 37.5977 88.5772 38.2854 86.6889 39.7846L79.5691 45.4373L76.7428 41.8774C68.942 32.0521 54.6368 30.409 44.8115 38.2098C35.9118 45.2757 33.7297 57.5132 39.0399 67.0524C37.5259 67.5579 36.0748 68.3618 34.7576 69.4076C31.9252 71.6564 30.1021 74.9382 29.6895 78.5312C29.2768 82.1242 30.3083 85.7339 32.5571 88.5663C34.8059 91.3988 38.0878 93.2219 41.6807 93.6345C45.2737 94.0472 48.8834 93.0157 51.7159 90.7669Z" fill="white"/>
<path d="M47.94 65.18C47.5267 65.18 47.18 65.0867 46.9 64.9C46.62 64.7 46.4467 64.4333 46.38 64.1C46.3133 63.7533 46.3733 63.3667 46.56 62.94L51.54 52.22C51.78 51.7 52.0733 51.32 52.42 51.08C52.78 50.84 53.1867 50.72 53.64 50.72C54.0933 50.72 54.4867 50.84 54.82 51.08C55.1667 51.32 55.4667 51.7 55.72 52.22L60.7 62.94C60.9133 63.3667 60.9867 63.7533 60.92 64.1C60.8667 64.4467 60.7 64.7133 60.42 64.9C60.1533 65.0867 59.82 65.18 59.42 65.18C58.8867 65.18 58.4733 65.06 58.18 64.82C57.9 64.58 57.6467 64.1933 57.42 63.66L56.34 61.12L57.74 62.14H49.5L50.92 61.12L49.84 63.66C49.6 64.1933 49.3533 64.58 49.1 64.82C48.8467 65.06 48.46 65.18 47.94 65.18ZM53.6 54.74L51.28 60.28L50.72 59.32H56.54L55.98 60.28L53.64 54.74H53.6ZM69.3023 65.22C67.7423 65.22 66.4023 64.92 65.2823 64.32C64.1623 63.72 63.3023 62.8733 62.7023 61.78C62.1157 60.6867 61.8223 59.4067 61.8223 57.94C61.8223 56.8467 61.989 55.8533 62.3223 54.96C62.669 54.0667 63.1623 53.3 63.8023 52.66C64.4557 52.02 65.2423 51.5333 66.1623 51.2C67.0957 50.8533 68.1423 50.68 69.3023 50.68C69.9157 50.68 70.549 50.7533 71.2023 50.9C71.869 51.0333 72.4557 51.24 72.9623 51.52C73.3357 51.72 73.5957 51.9733 73.7423 52.28C73.889 52.5867 73.9357 52.9 73.8823 53.22C73.8423 53.54 73.729 53.8267 73.5423 54.08C73.3557 54.3333 73.1157 54.5067 72.8223 54.6C72.529 54.68 72.209 54.6333 71.8623 54.46C71.4623 54.2733 71.0623 54.1333 70.6623 54.04C70.2757 53.9333 69.869 53.88 69.4423 53.88C68.6157 53.88 67.9223 54.04 67.3623 54.36C66.8157 54.6667 66.4023 55.12 66.1223 55.72C65.8423 56.32 65.7023 57.06 65.7023 57.94C65.7023 58.82 65.8423 59.5667 66.1223 60.18C66.4023 60.78 66.8157 61.24 67.3623 61.56C67.9223 61.8667 68.6157 62.02 69.4423 62.02C69.789 62.02 70.1623 61.98 70.5623 61.9C70.9623 61.8067 71.3557 61.6667 71.7423 61.48C72.1423 61.3067 72.4957 61.26 72.8023 61.34C73.1223 61.42 73.3757 61.58 73.5623 61.82C73.7623 62.06 73.889 62.34 73.9423 62.66C73.9957 62.9667 73.949 63.2733 73.8023 63.58C73.669 63.8867 73.429 64.1333 73.0823 64.32C72.6157 64.6 72.0357 64.82 71.3423 64.98C70.6623 65.14 69.9823 65.22 69.3023 65.22ZM77.8719 65C77.2452 65 76.7652 64.84 76.4319 64.52C76.1119 64.1867 75.9519 63.7133 75.9519 63.1V52.8C75.9519 52.1867 76.1119 51.72 76.4319 51.4C76.7652 51.0667 77.2452 50.9 77.8719 50.9H84.6519C85.1319 50.9 85.4919 51.02 85.7319 51.26C85.9719 51.5 86.0919 51.8467 86.0919 52.3C86.0919 52.7667 85.9719 53.1267 85.7319 53.38C85.4919 53.62 85.1319 53.74 84.6519 53.74H79.4719V56.42H84.2119C84.6785 56.42 85.0319 56.54 85.2719 56.78C85.5252 57.02 85.6519 57.3733 85.6519 57.84C85.6519 58.3067 85.5252 58.66 85.2719 58.9C85.0319 59.14 84.6785 59.26 84.2119 59.26H79.4719V62.16H84.6519C85.1319 62.16 85.4919 62.2867 85.7319 62.54C85.9719 62.78 86.0919 63.1267 86.0919 63.58C86.0919 64.0467 85.9719 64.4 85.7319 64.64C85.4919 64.88 85.1319 65 84.6519 65H77.8719Z" fill="white"/>
<path d="M67.49 91.27C66.63 91.27 65.97 91.04 65.51 90.58C65.05 90.12 64.82 89.45 64.82 88.57V80.17H64.04C63.4 80.17 62.9 80 62.54 79.66C62.2 79.32 62.03 78.83 62.03 78.19C62.03 77.55 62.2 77.07 62.54 76.75C62.9 76.41 63.4 76.24 64.04 76.24H66.35L64.82 77.65V76.81C64.82 74.59 65.37 72.93 66.47 71.83C67.59 70.71 69.25 70.04 71.45 69.82L72.32 69.73C72.96 69.65 73.47 69.73 73.85 69.97C74.23 70.19 74.49 70.49 74.63 70.87C74.77 71.23 74.8 71.61 74.72 72.01C74.66 72.41 74.51 72.75 74.27 73.03C74.03 73.31 73.71 73.47 73.31 73.51L72.89 73.54C71.87 73.62 71.16 73.84 70.76 74.2C70.36 74.56 70.16 75.09 70.16 75.79V76.78L69.5 76.24H71.87C72.53 76.24 73.03 76.41 73.37 76.75C73.71 77.07 73.88 77.55 73.88 78.19C73.88 78.83 73.71 79.32 73.37 79.66C73.03 80 72.53 80.17 71.87 80.17H70.16V88.57C70.16 90.37 69.27 91.27 67.49 91.27ZM82.778 91.33C81.138 91.33 79.708 91.02 78.488 90.4C77.268 89.78 76.318 88.89 75.638 87.73C74.958 86.57 74.618 85.2 74.618 83.62C74.618 82.42 74.808 81.35 75.188 80.41C75.568 79.45 76.118 78.64 76.838 77.98C77.558 77.3 78.418 76.79 79.418 76.45C80.418 76.09 81.538 75.91 82.778 75.91C84.418 75.91 85.848 76.22 87.068 76.84C88.288 77.46 89.228 78.35 89.888 79.51C90.568 80.65 90.908 82.02 90.908 83.62C90.908 84.8 90.718 85.87 90.338 86.83C89.958 87.79 89.408 88.61 88.688 89.29C87.988 89.95 87.128 90.46 86.108 90.82C85.108 91.16 83.998 91.33 82.778 91.33ZM82.778 87.4C83.318 87.4 83.798 87.27 84.218 87.01C84.638 86.73 84.958 86.32 85.178 85.78C85.418 85.22 85.538 84.5 85.538 83.62C85.538 82.28 85.278 81.32 84.758 80.74C84.238 80.14 83.578 79.84 82.778 79.84C82.238 79.84 81.758 79.97 81.338 80.23C80.918 80.49 80.588 80.9 80.348 81.46C80.108 82 79.988 82.72 79.988 83.62C79.988 84.94 80.248 85.9 80.768 86.5C81.288 87.1 81.958 87.4 82.778 87.4ZM96.0849 91.27C95.2049 91.27 94.5249 91.04 94.0449 90.58C93.5849 90.12 93.3549 89.45 93.3549 88.57V78.64C93.3549 77.78 93.5749 77.12 94.0149 76.66C94.4749 76.2 95.1249 75.97 95.9649 75.97C96.8049 75.97 97.4449 76.2 97.8849 76.66C98.3249 77.12 98.5449 77.78 98.5449 78.64V79.87H98.2449C98.4449 78.67 98.9549 77.72 99.7749 77.02C100.615 76.32 101.655 75.95 102.895 75.91C103.475 75.89 103.905 76.04 104.185 76.36C104.485 76.66 104.645 77.23 104.665 78.07C104.665 78.79 104.515 79.36 104.215 79.78C103.915 80.2 103.345 80.45 102.505 80.53L101.815 80.59C100.755 80.69 99.9849 80.99 99.5049 81.49C99.0249 81.97 98.7849 82.69 98.7849 83.65V88.57C98.7849 89.45 98.5549 90.12 98.0949 90.58C97.6349 91.04 96.9649 91.27 96.0849 91.27ZM114.139 91.33C112.339 91.33 110.779 91.02 109.459 90.4C108.159 89.76 107.159 88.86 106.459 87.7C105.759 86.54 105.409 85.17 105.409 83.59C105.409 82.07 105.739 80.74 106.399 79.6C107.079 78.44 107.999 77.54 109.159 76.9C110.339 76.24 111.679 75.91 113.179 75.91C114.279 75.91 115.279 76.09 116.179 76.45C117.079 76.79 117.849 77.3 118.489 77.98C119.129 78.64 119.609 79.44 119.929 80.38C120.269 81.32 120.439 82.37 120.439 83.53C120.439 83.93 120.329 84.23 120.109 84.43C119.889 84.61 119.539 84.7 119.059 84.7H109.879V82.18H116.539L116.059 82.57C116.059 81.83 115.959 81.23 115.759 80.77C115.559 80.31 115.259 79.96 114.859 79.72C114.479 79.48 113.999 79.36 113.419 79.36C112.799 79.36 112.259 79.51 111.799 79.81C111.359 80.09 111.019 80.51 110.779 81.07C110.539 81.63 110.419 82.33 110.419 83.17V83.44C110.419 84.86 110.729 85.88 111.349 86.5C111.989 87.1 112.969 87.4 114.289 87.4C114.729 87.4 115.229 87.35 115.789 87.25C116.369 87.13 116.919 86.97 117.439 86.77C117.959 86.57 118.409 86.54 118.789 86.68C119.169 86.8 119.459 87.02 119.659 87.34C119.879 87.64 119.999 87.99 120.019 88.39C120.039 88.77 119.949 89.15 119.749 89.53C119.549 89.89 119.219 90.17 118.759 90.37C118.059 90.69 117.309 90.93 116.509 91.09C115.729 91.25 114.939 91.33 114.139 91.33ZM130.27 91.33C128.61 91.33 127.16 91.02 125.92 90.4C124.7 89.78 123.75 88.89 123.07 87.73C122.39 86.55 122.05 85.17 122.05 83.59C122.05 82.39 122.24 81.32 122.62 80.38C123 79.42 123.55 78.61 124.27 77.95C125.01 77.29 125.88 76.79 126.88 76.45C127.9 76.09 129.03 75.91 130.27 75.91C130.85 75.91 131.46 75.97 132.1 76.09C132.74 76.19 133.4 76.39 134.08 76.69C134.56 76.87 134.89 77.15 135.07 77.53C135.27 77.89 135.35 78.28 135.31 78.7C135.29 79.12 135.17 79.5 134.95 79.84C134.75 80.18 134.46 80.41 134.08 80.53C133.72 80.65 133.31 80.6 132.85 80.38C132.53 80.22 132.19 80.11 131.83 80.05C131.49 79.97 131.16 79.93 130.84 79.93C130.3 79.93 129.82 80.01 129.4 80.17C129 80.33 128.66 80.57 128.38 80.89C128.1 81.19 127.88 81.57 127.72 82.03C127.58 82.49 127.51 83.01 127.51 83.59C127.51 84.75 127.8 85.66 128.38 86.32C128.96 86.98 129.78 87.31 130.84 87.31C131.16 87.31 131.49 87.28 131.83 87.22C132.17 87.14 132.51 87.02 132.85 86.86C133.31 86.64 133.72 86.6 134.08 86.74C134.44 86.86 134.73 87.09 134.95 87.43C135.17 87.77 135.29 88.15 135.31 88.57C135.33 88.97 135.24 89.36 135.04 89.74C134.84 90.1 134.5 90.37 134.02 90.55C133.36 90.85 132.71 91.05 132.07 91.15C131.45 91.27 130.85 91.33 130.27 91.33ZM142.372 91.33C141.232 91.33 140.222 91.12 139.342 90.7C138.482 90.28 137.802 89.71 137.302 88.99C136.822 88.25 136.582 87.41 136.582 86.47C136.582 85.39 136.862 84.54 137.422 83.92C137.982 83.3 138.882 82.86 140.122 82.6C141.362 82.32 143.012 82.18 145.072 82.18H146.722V84.7H145.072C144.292 84.7 143.642 84.76 143.122 84.88C142.622 84.98 142.252 85.15 142.012 85.39C141.772 85.61 141.652 85.9 141.652 86.26C141.652 86.72 141.812 87.1 142.132 87.4C142.472 87.7 142.952 87.85 143.572 87.85C144.072 87.85 144.512 87.74 144.892 87.52C145.292 87.3 145.612 87 145.852 86.62C146.092 86.22 146.212 85.76 146.212 85.24V81.76C146.212 81.04 146.022 80.53 145.642 80.23C145.282 79.93 144.652 79.78 143.752 79.78C143.272 79.78 142.732 79.84 142.132 79.96C141.532 80.06 140.862 80.25 140.122 80.53C139.582 80.73 139.122 80.76 138.742 80.62C138.362 80.48 138.062 80.24 137.842 79.9C137.642 79.56 137.542 79.19 137.542 78.79C137.562 78.39 137.692 78.01 137.932 77.65C138.192 77.29 138.582 77.01 139.102 76.81C140.062 76.45 140.942 76.21 141.742 76.09C142.562 75.97 143.312 75.91 143.992 75.91C145.632 75.91 146.982 76.15 148.042 76.63C149.122 77.09 149.922 77.81 150.442 78.79C150.982 79.75 151.252 80.99 151.252 82.51V88.57C151.252 89.45 151.042 90.12 150.622 90.58C150.202 91.04 149.592 91.27 148.792 91.27C147.972 91.27 147.342 91.04 146.902 90.58C146.482 90.12 146.272 89.45 146.272 88.57V87.79L146.452 88.21C146.352 88.85 146.122 89.4 145.762 89.86C145.402 90.32 144.932 90.68 144.352 90.94C143.772 91.2 143.112 91.33 142.372 91.33ZM160.172 91.33C159.292 91.33 158.392 91.26 157.472 91.12C156.572 91 155.752 90.77 155.012 90.43C154.512 90.23 154.152 89.96 153.932 89.62C153.732 89.28 153.632 88.92 153.632 88.54C153.652 88.16 153.762 87.82 153.962 87.52C154.182 87.2 154.462 86.98 154.802 86.86C155.162 86.72 155.562 86.73 156.002 86.89C156.842 87.19 157.592 87.41 158.252 87.55C158.932 87.67 159.582 87.73 160.202 87.73C160.942 87.73 161.472 87.63 161.792 87.43C162.112 87.21 162.272 86.93 162.272 86.59C162.272 86.29 162.162 86.06 161.942 85.9C161.742 85.74 161.452 85.63 161.072 85.57L157.742 85.03C156.502 84.81 155.542 84.36 154.862 83.68C154.182 82.98 153.842 82.07 153.842 80.95C153.842 79.91 154.132 79.02 154.712 78.28C155.312 77.52 156.122 76.94 157.142 76.54C158.182 76.12 159.372 75.91 160.712 75.91C161.612 75.91 162.432 75.98 163.172 76.12C163.912 76.24 164.632 76.47 165.332 76.81C165.772 76.99 166.082 77.25 166.262 77.59C166.442 77.93 166.512 78.29 166.472 78.67C166.432 79.03 166.302 79.37 166.082 79.69C165.882 79.99 165.602 80.2 165.242 80.32C164.882 80.42 164.462 80.39 163.982 80.23C163.322 79.97 162.732 79.78 162.212 79.66C161.712 79.54 161.242 79.48 160.802 79.48C159.982 79.48 159.402 79.59 159.062 79.81C158.722 80.03 158.552 80.31 158.552 80.65C158.552 80.91 158.642 81.13 158.822 81.31C159.002 81.47 159.282 81.58 159.662 81.64L162.992 82.21C164.272 82.41 165.252 82.85 165.932 83.53C166.632 84.19 166.982 85.09 166.982 86.23C166.982 87.85 166.362 89.11 165.122 90.01C163.882 90.89 162.232 91.33 160.172 91.33ZM176.769 91.33C175.269 91.33 174.029 91.1 173.049 90.64C172.089 90.18 171.369 89.49 170.889 88.57C170.409 87.63 170.169 86.46 170.169 85.06V80.17H169.149C168.509 80.17 168.009 80 167.649 79.66C167.309 79.32 167.139 78.83 167.139 78.19C167.139 77.55 167.309 77.07 167.649 76.75C168.009 76.41 168.509 76.24 169.149 76.24H170.169V74.38C170.169 73.5 170.399 72.83 170.859 72.37C171.319 71.91 171.979 71.68 172.839 71.68C173.699 71.68 174.359 71.91 174.819 72.37C175.279 72.83 175.509 73.5 175.509 74.38V76.24H177.969C178.629 76.24 179.129 76.41 179.469 76.75C179.829 77.07 180.009 77.55 180.009 78.19C180.009 78.83 179.829 79.32 179.469 79.66C179.129 80 178.629 80.17 177.969 80.17H175.509V84.88C175.509 85.62 175.679 86.17 176.019 86.53C176.379 86.87 176.939 87.04 177.699 87.04C177.979 87.04 178.249 87.01 178.509 86.95C178.769 86.89 179.009 86.86 179.229 86.86C179.549 86.84 179.809 86.94 180.009 87.16C180.209 87.36 180.309 87.83 180.309 88.57C180.309 89.17 180.219 89.68 180.039 90.1C179.859 90.5 179.539 90.79 179.079 90.97C178.799 91.07 178.419 91.15 177.939 91.21C177.459 91.29 177.069 91.33 176.769 91.33Z" fill="white"/>
</svg>
